<svg id="Capa_1" data-name="Capa 1" xmlns="http://www.w3.org/2000/svg" viewBox="0 0 1000 1000"><path d="M307.83,275H117l84.5,162.76c55.5,35.75,134.33,66,234,90.13Zm-63,246.24,80.47,154.9c16.81,31.54,42.32,56.43,90.05,56.43S498,705.69,524.22,676.14l58.6-65.56C443,589.42,330,559.57,244.84,521.24ZM699.57,275,466.42,535q72.93,16.11,159.07,28L883,275Z"/><path d="M491.83,267.09c-100.66,0-112.3,11.6-112.3,74.79,0,39.6,26.66,45.59,92.77,45.59,100.65,0,112.29-12,112.29-75.19C584.59,273.09,557.93,267.09,491.83,267.09Z"/></svg>