<svg id="Capa_1" data-name="Capa 1" xmlns="http://www.w3.org/2000/svg" viewBox="0 0 1000 329"><path d="M182.36,113.76h-43l19,36.69c12.51,8.06,30.28,14.88,52.75,20.32Zm-14.2,55.51,18.14,34.92c3.8,7.11,9.55,12.72,20.3,12.72s18.63-6.06,24.54-12.72l13.21-14.78C212.82,184.64,187.36,177.91,168.16,169.27Zm102.51-55.51-52.56,58.61q16.44,3.63,35.86,6.3l58-64.91Z"/><path d="M373.93,197.75c-23.8,0-46.45-.66-67.66-2l-3.44,19.32h97.55l17.2-18Q395.22,197.76,373.93,197.75Zm-23.39-54.46h61.95l28-29.53H320.86l-12.48,70.13c11.22.68,22.86,1.17,34.85,1.48l1.56-8.9h58.92l23.93-24.69H349.18Z"/><path d="M436.23,196.35l-3.3,18.74h31.81l3.56-20.47Q452.06,195.66,436.23,196.35Zm68.67-4.44L522.75,211c4.55,5,8.49,6.06,12.88,6.06,10.16,0,20.3-6.21,23-21.36l1.64-9.36C542.1,188.47,523.6,190.34,504.9,191.91Zm36.18-78-9.54,56-48.32-52.1c-4.68-5-8.78-5.91-12.87-5.91-10.3,0-20.45,6.21-23,21.36l-9,50.95q15.81-.72,32.06-1.78l4-23.12,20,21.38c23-1.82,45.75-4.07,68-6.71l10.47-60.11Z"/><path d="M579.64,184l-5.53,31.12h35.14l5-28.17c.5-2.65.86-5.35,1.18-7.94Q597.82,181.64,579.64,184Zm89.44-4.17c-3.32-3.28-6.13-6-8.51-8.33q-19.77,3.61-40.52,6.8c2,2.45,4.91,5.81,9.19,10.77l22.42,26.05h52.86Zm-.61-66L638.33,138c-10.29,8.33-15.9,13.33-19.08,16.36,1.21-5.45,2.87-12.12,4.1-18.63l3.92-22H592.13L581.85,171.6c23.45-3,46.25-6.53,68.14-10.38,5.15-3,10.43-6.56,25.3-17l43.78-30.44Z"/><path d="M793.24,112.09c-44.92,0-72,12-81.79,36.81,44.15-10.06,82.38-21.65,111.6-34.15A146.35,146.35,0,0,0,793.24,112.09Zm46.57,8.24c-15.56,7.42-34.21,14.56-55.38,21.31h3.36c26.66,0,37.41,2.27,37.41,17.11,0,23.94-4.69,28.48-45.28,28.48-26.66,0-37.42-2.27-37.42-17.27,0-7.3.44-12.78,2.2-16.87-11.72,3.06-24,6-36.66,8.82a77.88,77.88,0,0,0-.83,11.69c0,29.53,22.72,43.17,67.4,43.17,57.71,0,86-20,86-61.8C860.65,138.66,853.66,127.25,839.81,120.33Z"/><path d="M223.84,112c-22.69,0-25.31,2.61-25.31,16.86,0,8.92,6,10.27,20.91,10.27,22.69,0,25.31-2.7,25.31-17C244.75,113.33,238.74,112,223.84,112Z"/></svg>